# xmcd
# 
# Track frame offsets:
#     182
#     17225
#     34632
#     55802
#     75295
#     93755
#     115482
#     142227
#     158670
# 
# Disc length: 2348
# 
# Revision: 29
# Processed by: cddbd v1.5.2PL0 Copyright (c) Steve Scherf et al.
# Submitted via: fre:ac v1.0.31
# 
DISCID=68092a09
DTITLE=Original Soundtrack - The Rocky Story
DYEAR=1990
DGENRE=Soundtrack
TTITLE0=Survivor - Eye Of The Tiger
TTITLE1=Survivor - Burning Heart
TTITLE2=James Brown - Living In America
TTITLE3=Robert Tepper - No Easy Way Out
TTITLE4=John Cafferty - Hearts On Fire
TTITLE5=The Rocky Orchestra - Gonna Fly Now
TTITLE6=Vince DiCola - War
TTITLE7=Vince DiCola - Training Montage
TTITLE8=The Rocky Orchestra - Gonna Fly Now (Instumental)
EXTD=YEAR: 1990
EXTT0=
EXTT1=
EXTT2=
EXTT3=
EXTT4=
EXTT5=
EXTT6=
EXTT7=
EXTT8=
PLAYORDER=
